<?xml version="1.0" encoding="UTF-8" standalone="no"?>
<svg width="337px" height="100px" viewBox="0 0 337 100" version="1.1" xmlns="http://www.w3.org/2000/svg" xmlns:xlink="http://www.w3.org/1999/xlink">
    <!-- Generator: Sketch 39.1 (31720) - http://www.bohemiancoding.com/sketch -->
    <title>Appstore</title>
    <desc>Created with Sketch.</desc>
    <defs></defs>
    <g id="Page-1" stroke="none" stroke-width="1" fill="none" fill-rule="evenodd">
        <g id="Desktop" transform="translate(-70.000000, -1130.000000)">
            <g id="Appstore" transform="translate(70.000000, 1130.000000)">
                <rect id="backfround-copy" fill="#FFFFFF" x="0" y="0" width="337" height="100" rx="16"></rect>
                <path d="M129.353006,76.7981439 L135.017089,76.7981439 L122.617984,42.4677802 L116.882505,42.4677802 L104.4834,76.7981439 L109.957093,76.7981439 L113.122316,67.686204 L126.211582,67.686204 L129.353006,76.7981439 Z M119.47656,48.7010133 L119.881137,48.7010133 L124.855058,63.2135024 L114.47884,63.2135024 L119.47656,48.7010133 Z M150.035499,50.4615447 C146.513296,50.4615447 143.467067,52.2220762 141.896355,55.172156 L141.515576,55.172156 L141.515576,50.8897821 L136.589252,50.8897821 L136.589252,85.1963548 L141.705965,85.1963548 L141.705965,72.8726345 L142.110543,72.8726345 C143.467067,75.6085956 146.394303,77.2263812 150.083096,77.2263812 C156.627729,77.2263812 160.792496,72.0637417 160.792496,63.8320675 C160.792496,55.6003933 156.627729,50.4615447 150.035499,50.4615447 L150.035499,50.4615447 Z M148.58378,72.6347248 C144.30002,72.6347248 141.610771,69.2564077 141.610771,63.8558585 C141.610771,58.4315183 144.30002,55.0532011 148.607579,55.0532011 C152.938936,55.0532011 155.532991,58.3601454 155.532991,63.8320675 C155.532991,69.3277806 152.938936,72.6347248 148.58378,72.6347248 L148.58378,72.6347248 Z M176.572463,50.4615447 C173.05026,50.4615447 170.004031,52.2220762 168.433319,55.172156 L168.05254,55.172156 L168.05254,50.8897821 L163.126216,50.8897821 L163.126216,85.1963548 L168.242929,85.1963548 L168.242929,72.8726345 L168.647507,72.8726345 C170.004031,75.6085956 172.931267,77.2263812 176.62006,77.2263812 C183.164693,77.2263812 187.32946,72.0637417 187.32946,63.8320675 C187.32946,55.6003933 183.164693,50.4615447 176.572463,50.4615447 L176.572463,50.4615447 Z M175.120744,72.6347248 C170.836984,72.6347248 168.147735,69.2564077 168.147735,63.8558585 C168.147735,58.4315183 170.836984,55.0532011 175.144543,55.0532011 C179.4759,55.0532011 182.069955,58.3601454 182.069955,63.8320675 C182.069955,69.3277806 179.4759,72.6347248 175.120744,72.6347248 L175.120744,72.6347248 Z M198.160755,67.5672491 C198.541533,73.7053183 203.658247,77.6308277 211.27382,77.6308277 C219.412964,77.6308277 224.505879,73.5149906 224.505879,66.948684 C224.505879,61.7860444 221.602441,58.9311286 214.558036,57.2895519 L210.774048,56.3617042 C206.299899,55.3149018 204.4912,53.9112348 204.4912,51.4607653 C204.4912,48.3679397 207.299443,46.3457077 211.511807,46.3457077 C215.509983,46.3457077 218.270628,48.3203578 218.7704,51.4845563 L223.958509,51.4845563 C223.649127,45.7033516 218.556212,41.6350964 211.583203,41.6350964 C204.086623,41.6350964 199.088903,45.7033516 199.088903,51.8176298 C199.088903,56.8613145 201.920944,59.8589762 208.132396,61.3102251 L212.558948,62.3808186 C217.104493,63.4514121 219.103581,65.0216158 219.103581,67.638622 C219.103581,70.6838656 215.962157,72.8964255 211.678397,72.8964255 C207.085255,72.8964255 203.896233,70.8266114 203.444059,67.5672491 L198.160755,67.5672491 Z M228.910083,44.6089672 L228.910083,51.0087369 L224.650121,51.0087369 L224.650121,55.3149018 L228.910083,55.3149018 L228.910083,69.9463457 C228.910083,74.9424485 231.170956,76.9408896 236.858837,76.9408896 C237.858381,76.9408896 238.786529,76.8219348 239.595684,76.679189 L239.595684,72.4206061 C238.881724,72.491979 238.477147,72.539561 237.691791,72.539561 C235.145333,72.539561 234.026796,71.3500127 234.026796,68.6378426 L234.026796,55.3149018 L239.833671,55.3149018 L239.833671,51.0087369 L234.026796,51.0087369 L234.026796,44.6089672 L228.910083,44.6089672 Z M252.519811,72.7536797 C248.06946,72.7536797 245.5706,69.4943174 245.5706,63.8320675 C245.5706,58.2173996 248.06946,54.9342463 252.519811,54.9342463 C256.946363,54.9342463 259.469021,58.2173996 259.469021,63.8320675 C259.469021,69.4705264 256.946363,72.7536797 252.519811,72.7536797 L252.519811,72.7536797 Z M252.519811,77.2977541 C260.087787,77.2977541 264.728527,72.2302784 264.728527,63.8320675 C264.728527,55.4814385 260.063988,50.3901718 252.519811,50.3901718 C244.951835,50.3901718 240.287296,55.4814385 240.287296,63.8320675 C240.287296,72.2302784 244.928036,77.2977541 252.519811,77.2977541 L252.519811,77.2977541 Z M267.062247,76.7981439 L272.17896,76.7981439 L272.17896,61.5005529 C272.17896,57.8605351 274.915807,55.4100656 278.771191,55.4100656 C279.627943,55.4100656 281.198655,55.5766024 281.603232,55.7193482 L281.603232,50.6756634 C281.055863,50.5329176 280.080117,50.4615447 279.342359,50.4615447 C275.962948,50.4615447 273.107108,52.3172401 272.369349,54.8628734 L271.988571,54.8628734 L271.988571,50.8897821 L267.062247,50.8897821 L267.062247,76.7981439 Z M293.123238,54.7439186 C296.907226,54.7439186 299.382287,57.3847158 299.50128,61.4529709 L286.412014,61.4529709 C286.697598,57.4085067 289.33925,54.7439186 293.123238,54.7439186 L293.123238,54.7439186 Z M299.477482,69.8035999 C298.525535,71.825832 296.407454,72.9440074 293.313627,72.9440074 C289.220256,72.9440074 286.578604,70.0653005 286.412014,65.5212261 L286.412014,65.2357345 L304.713188,65.2357345 L304.713188,63.4514121 C304.713188,55.3149018 300.358032,50.3901718 293.147036,50.3901718 C285.840846,50.3901718 281.200105,55.6479753 281.200105,63.9272314 C281.200105,72.2064875 285.745651,77.2977541 293.170835,77.2977541 C299.096703,77.2977541 303.237671,74.4428382 304.403806,69.8035999 L299.477482,69.8035999 Z" id="App-Store" fill="#8B572A"></path>
                <path d="M109.278491,15.6707693 L109.278491,32.0185615 L115.182827,32.0185615 C120.055887,32.0185615 122.877729,29.0163682 122.877729,23.7936847 C122.877729,18.6503045 120.033222,15.6707693 115.182827,15.6707693 L109.278491,15.6707693 Z M111.817016,17.9818917 L114.89951,17.9818917 C118.287986,17.9818917 120.293874,20.1344076 120.293874,23.8276718 C120.293874,27.5775812 118.321984,29.7074391 114.89951,29.7074391 L111.817016,29.7074391 L111.817016,17.9818917 Z M131.810162,30.0926262 C129.690948,30.0926262 128.501014,28.5405489 128.501014,25.8442394 C128.501014,23.170588 129.690948,21.6071817 131.810162,21.6071817 C133.918044,21.6071817 135.11931,23.170588 135.11931,25.8442394 C135.11931,28.5292198 133.918044,30.0926262 131.810162,30.0926262 L131.810162,30.0926262 Z M131.810162,32.2564711 C135.41396,32.2564711 137.623836,29.8433875 137.623836,25.8442394 C137.623836,21.8677494 135.402628,19.4433367 131.810162,19.4433367 C128.206364,19.4433367 125.985155,21.8677494 125.985155,25.8442394 C125.985155,29.8433875 128.195031,32.2564711 131.810162,32.2564711 L131.810162,32.2564711 Z M156.7217,19.6812464 L154.28517,19.6812464 L152.086626,29.0956714 L151.89397,29.0956714 L149.355446,19.6812464 L147.02091,19.6812464 L144.482386,29.0956714 L144.301062,29.0956714 L142.091186,19.6812464 L139.620658,19.6812464 L143.020467,32.0185615 L145.524994,32.0185615 L148.063518,22.9326784 L148.256174,22.9326784 L150.806031,32.0185615 L153.333223,32.0185615 L156.7217,19.6812464 Z M159.817793,32.0185615 L162.254323,32.0185615 L162.254323,24.8019685 C162.254323,22.8760332 163.455589,21.6751559 165.416146,21.6751559 C167.229378,21.6751559 168.113328,22.6607816 168.113328,24.6433621 L168.113328,32.0185615 L170.549858,32.0185615 L170.549858,24.0315944 C170.549858,21.0973753 168.997279,19.4433367 166.243433,19.4433367 C164.384871,19.4433367 162.945618,20.270356 162.344985,21.6411688 L162.163662,21.6411688 L162.163662,19.6812464 L159.817793,19.6812464 L159.817793,32.0185615 Z M174.665895,32.0185615 L177.102425,32.0185615 L177.102425,14.8664081 L174.665895,14.8664081 L174.665895,32.0185615 Z M186.544829,30.0926262 C184.425614,30.0926262 183.235681,28.5405489 183.235681,25.8442394 C183.235681,23.170588 184.425614,21.6071817 186.544829,21.6071817 C188.652711,21.6071817 189.853977,23.170588 189.853977,25.8442394 C189.853977,28.5292198 188.652711,30.0926262 186.544829,30.0926262 L186.544829,30.0926262 Z M186.544829,32.2564711 C190.148627,32.2564711 192.358503,29.8433875 192.358503,25.8442394 C192.358503,21.8677494 190.137294,19.4433367 186.544829,19.4433367 C182.941031,19.4433367 180.719822,21.8677494 180.719822,25.8442394 C180.719822,29.8433875 182.929698,32.2564711 186.544829,32.2564711 L186.544829,32.2564711 Z M199.897014,30.1719294 C198.571089,30.1719294 197.607809,29.5261746 197.607809,28.4159295 C197.607809,27.3283425 198.378433,26.7505619 200.078338,26.6372716 L203.092835,26.4446781 L203.092835,27.4756199 C203.092835,29.0050392 201.732912,30.1719294 199.897014,30.1719294 L199.897014,30.1719294 Z M199.273716,32.222484 C200.894292,32.222484 202.242883,31.5200841 202.979508,30.2852197 L203.172164,30.2852197 L203.172164,32.0185615 L205.518033,32.0185615 L205.518033,23.5897622 C205.518033,20.984085 203.772797,19.4433367 200.678971,19.4433367 C197.879794,19.4433367 195.885239,20.8028205 195.63592,22.9213493 L197.993121,22.9213493 C198.265106,22.0490139 199.20572,21.5505365 200.565644,21.5505365 C202.23155,21.5505365 203.092835,22.2869236 203.092835,23.5897622 L203.092835,24.6546911 L199.749689,24.8472847 C196.81452,25.0285492 195.159946,26.3087297 195.159946,28.5292198 C195.159946,30.7836971 196.893849,32.222484 199.273716,32.222484 L199.273716,32.222484 Z M214.076487,32.222484 C215.776391,32.222484 217.215644,31.4181228 217.952269,30.0699681 L218.144925,30.0699681 L218.144925,32.0185615 L220.479461,32.0185615 L220.479461,14.8664081 L218.042931,14.8664081 L218.042931,21.6411688 L217.861608,21.6411688 C217.192979,20.281685 215.765059,19.4773238 214.076487,19.4773238 C210.959995,19.4773238 208.954107,21.9470526 208.954107,25.8442394 C208.954107,29.7527552 210.937329,32.222484 214.076487,32.222484 L214.076487,32.222484 Z M214.767781,21.6638269 C216.807667,21.6638269 218.088262,23.2838783 218.088262,25.8555684 C218.088262,28.4385876 216.819,30.035981 214.767781,30.035981 C212.70523,30.035981 211.469966,28.4612456 211.469966,25.8442394 C211.469966,23.2498912 212.716563,21.6638269 214.767781,21.6638269 L214.767781,21.6638269 Z M236.848411,30.0926262 C234.729196,30.0926262 233.539263,28.5405489 233.539263,25.8442394 C233.539263,23.170588 234.729196,21.6071817 236.848411,21.6071817 C238.956293,21.6071817 240.157559,23.170588 240.157559,25.8442394 C240.157559,28.5292198 238.956293,30.0926262 236.848411,30.0926262 L236.848411,30.0926262 Z M236.848411,32.2564711 C240.452209,32.2564711 242.662085,29.8433875 242.662085,25.8442394 C242.662085,21.8677494 240.440876,19.4433367 236.848411,19.4433367 C233.244613,19.4433367 231.023404,21.8677494 231.023404,25.8442394 C231.023404,29.8433875 233.23328,32.2564711 236.848411,32.2564711 L236.848411,32.2564711 Z M246.166156,32.0185615 L248.602686,32.0185615 L248.602686,24.8019685 C248.602686,22.8760332 249.803952,21.6751559 251.764509,21.6751559 C253.57774,21.6751559 254.461691,22.6607816 254.461691,24.6433621 L254.461691,32.0185615 L256.898221,32.0185615 L256.898221,24.0315944 C256.898221,21.0973753 255.345641,19.4433367 252.591796,19.4433367 C250.733233,19.4433367 249.29398,20.270356 248.693347,21.6411688 L248.512024,21.6411688 L248.512024,19.6812464 L246.166156,19.6812464 L246.166156,32.0185615 Z M268.68876,16.6903821 L268.68876,19.7378915 L266.660207,19.7378915 L266.660207,21.7884462 L268.68876,21.7884462 L268.68876,28.7558005 C268.68876,31.134897 269.765367,32.0865357 272.473882,32.0865357 C272.949855,32.0865357 273.39183,32.0298905 273.777142,31.9619163 L273.777142,29.9340197 C273.437161,29.9680068 273.244505,29.9906649 272.870526,29.9906649 C271.657927,29.9906649 271.125291,29.4242133 271.125291,28.1327037 L271.125291,21.7884462 L273.890469,21.7884462 L273.890469,19.7378915 L271.125291,19.7378915 L271.125291,16.6903821 L268.68876,16.6903821 Z M277.360541,32.0185615 L279.797071,32.0185615 L279.797071,24.8132976 C279.797071,22.9440074 281.032336,21.6864849 283.02689,21.6864849 C284.862788,21.6864849 285.780736,22.6834397 285.780736,24.6546911 L285.780736,32.0185615 L288.217266,32.0185615 L288.217266,24.0542525 C288.217266,21.1200334 286.630689,19.4546657 283.854177,19.4546657 C281.995615,19.4546657 280.567695,20.281685 279.967062,21.6638269 L279.774406,21.6638269 L279.774406,14.8664081 L277.360541,14.8664081 L277.360541,32.0185615 Z M297.297024,21.5165494 C299.098923,21.5165494 300.277524,22.7740719 300.334187,24.7113363 L294.101203,24.7113363 C294.237196,22.785401 295.495125,21.5165494 297.297024,21.5165494 L297.297024,21.5165494 Z M300.322855,28.6878263 C299.869547,29.6507939 298.860937,30.1832584 297.387686,30.1832584 C295.438462,30.1832584 294.180532,28.8124456 294.101203,26.6486006 L294.101203,26.5126523 L302.816048,26.5126523 L302.816048,25.6629749 C302.816048,21.7884462 300.742165,19.4433367 297.308357,19.4433367 C293.829219,19.4433367 291.619342,21.9470526 291.619342,25.8895555 C291.619342,29.8320584 293.783888,32.2564711 297.31969,32.2564711 C300.141532,32.2564711 302.113421,30.8969874 302.668723,28.6878263 L300.322855,28.6878263 Z" id="Download-on-the" fill="#8B572A"></path>
                <g id="logo_apple" transform="translate(30.172176, 15.545244)" fill="#8B572A">
                    <path d="M44.8731668,34.9313758 C44.7984766,26.6331457 51.6699766,22.5960297 51.9841906,22.4080772 C48.0925728,16.7360323 42.0606938,15.9610502 39.941037,15.8992576 C34.8749798,15.3662965 29.9608787,18.9296693 27.3802029,18.9296693 C24.7480166,18.9296693 20.7739819,15.9507514 16.4908843,16.0382909 C10.9792614,16.1232557 5.82306088,19.3132983 2.99513473,24.2670044 C-2.84100431,34.3675184 1.51163248,49.2106139 7.10309667,57.3749601 C9.90011653,61.3760304 13.1684574,65.8379705 17.446404,65.6809143 C21.6316317,65.5109847 23.1949752,63.0135341 28.2455792,63.0135341 C33.2498237,63.0135341 34.7178728,65.6809143 39.0808117,65.5779267 C43.5725269,65.5109847 46.400453,61.5639829 49.0996029,57.5268669 C52.3318865,52.9490657 53.6299509,48.4304825 53.6814614,48.1987602 C53.5784404,48.1652893 44.9607347,44.8774084 44.8731668,34.9313758" id="Fill-2"></path>
                    <path d="M36.6314877,10.5284515 C38.8824963,7.71431385 40.4226601,3.88574785 39.995123,0.000538645646 C36.7370842,0.14472136 32.6626041,2.25339355 30.3163011,5.00573858 C28.2404281,7.43109781 26.3860503,11.4064212 26.8650979,15.144873 C30.5249186,15.4177903 34.2826092,13.2988193 36.6314877,10.5284515" id="Fill-3"></path>
                </g>
            </g>
        </g>
    </g>
</svg>