<?xml version="1.0" encoding="UTF-8" standalone="no"?>
<svg width="174px" height="174px" viewBox="0 0 174 174" version="1.1" xmlns="http://www.w3.org/2000/svg" xmlns:xlink="http://www.w3.org/1999/xlink">
    <!-- Generator: Sketch 39.1 (31720) - http://www.bohemiancoding.com/sketch -->
    <title>avatar</title>
    <desc>Created with Sketch.</desc>
    <defs>
        <circle id="path-1" cx="87" cy="87" r="87"></circle>
    </defs>
    <g id="Page-1" stroke="none" stroke-width="1" fill="none" fill-rule="evenodd">
        <g id="Artboard-4" transform="translate(-142.000000, -482.000000)">
            <g id="avatar" transform="translate(142.000000, 482.000000)">
                <mask id="mask-2" fill="white">
                    <use xlink:href="#path-1"></use>
                </mask>
                <use id="Mask" fill="#D8D8D8" xlink:href="#path-1"></use>
                <polygon id="Path-8" stroke="#295D99" stroke-width="0.5" fill="#487CB9" mask="url(#mask-2)" transform="translate(136.199463, 152.887939) scale(-1, 1) translate(-136.199463, -152.887939) " points="139.70752 132 122 150.024902 147.960938 173.775879 150.398926 140.831543"></polygon>
                <g mask="url(#mask-2)">
                    <g transform="translate(20.000000, 5.000000)">
                        <rect id="Rectangle" stroke="none" fill="#E0AB79" fill-rule="evenodd" x="55" y="104" width="21" height="24"></rect>
                        <g id="face" stroke="none" stroke-width="1" fill="none" fill-rule="evenodd" transform="translate(16.000000, 0.000000)">
                            <path d="M48.5,110 C76.8476562,110 90,79.2724518 90,50.8297872 C90,22.3871226 71.4198171,7 48.5,7 C25.5801829,7 7,22.3871226 7,50.8297872 C7,79.2724518 20.1523438,110 48.5,110 Z" id="Oval" fill="#E0AB79"></path>
                            <path d="M10,21.9157088 C10,21.9157088 17.0473633,1.50292968 49.6137695,0.970214839 C82.3813477,1.50292968 90.7421875,19.5465681 95.0273438,30.950865 C99.3125,42.3551619 100.03125,43.5075056 103.707031,43.5075056 C101.379883,47.1608259 97.0175781,47.1608259 97.0175781,47.1608259 C97.0175781,47.1608259 95.7666016,66.6285994 88.4833984,73.0026228 C84.2021484,58.7416992 86.2641602,52.7050781 86.2641602,52.7050781 C86.2641602,52.7050781 63.8603516,48.8246172 56.8535156,36.9864197 C56.8535156,42.1875 63.3623047,49.0566406 63.3623047,49.0566406 C63.3623047,49.0566406 44.8779297,53.1578963 29.203125,34.5866072 C29.203125,43.5075056 30.9667969,43.4713728 32.6210938,51.2623884 C15.2509766,43.4713728 10.3476562,34.90399 10.3476562,30.2243025 C10.3476562,25.544615 10,21.9157088 10,21.9157088 Z" id="Path-2" fill="#000000"></path>
                            <ellipse id="Oval-2" fill="#E0AB79" cx="84.5" cy="73.2925532" rx="5.5" ry="9.31382979"></ellipse>
                            <path d="M13.1081408,17 C13.1081408,17 -3.6851911,35.1552734 1.38574216,55.0712891 C6.45667542,74.9873047 11.7568359,73.6064453 11.7568359,73.6064453 L11.7568359,52.6972656 C11.7568359,52.6972656 29.1530626,42.5097656 25.563219,33.7636719 C21.9733753,25.0175781 13.1081408,17 13.1081408,17 Z" id="Path-3" fill="#000000"></path>
                            <ellipse id="Oval-2" fill="#E0AB79" cx="12.5" cy="73.2925532" rx="5.5" ry="9.31382979"></ellipse>
                            <path d="M14.0800781,84.1699212 C11.6201172,72.3740221 11.8769531,63.6572266 11.8769531,63.6572266 C11.8769531,63.6572266 16.8193357,86.3671858 23.5361326,89.4619141 C30.2529294,92.5566423 37.6328125,86.2597656 47.5371094,86.2597656 C57.4414062,86.2597656 61.4628904,90.7900391 69.4521482,90.7900391 C77.441406,90.7900391 82.6264684,75.8706055 86.4257848,63.6572266 C85.2656286,75.8706055 85.762696,73.8349613 83.8027344,84.1699219 C81.8427727,94.5048825 68.2578125,111.527345 47.5371094,111.527345 C36.4813989,111.527345 18.6083987,101.709962 14.0800781,84.1699212 Z" id="Path-5" fill="#000000"></path>
                            <ellipse id="Oval-3" fill="#5F320A" cx="33.335" cy="71.25" rx="3.33500004" ry="4.25"></ellipse>
                            <ellipse id="Oval-3" fill="#5F320A" cx="67.335" cy="71.25" rx="3.33500004" ry="4.25"></ellipse>
                            <path d="M26,59.6512357 C26,59.6512357 32.7050781,53.9256499 39.0400391,59.3026029" id="Path-4" stroke="#000000" stroke-width="2" stroke-linecap="round" transform="translate(32.520020, 58.325618) rotate(-5.000000) translate(-32.520020, -58.325618) "></path>
                            <path d="M60,59.6512357 C60,59.6512357 66.7050781,53.9256499 73.0400391,59.3026029" id="Path-4" stroke="#000000" stroke-width="2" stroke-linecap="round" transform="translate(66.520020, 58.325618) scale(-1, 1) rotate(-5.000000) translate(-66.520020, -58.325618) "></path>
                            <path d="M43,97.6512357 C43,97.6512357 49.7050781,91.9256499 56.0400391,97.3026029" id="Path-4" stroke="#E0AB79" stroke-width="2" stroke-linecap="round" transform="translate(49.520020, 96.325618) rotate(-187.000000) translate(-49.520020, -96.325618) "></path>
                        </g>
                        <polygon id="Path-8" stroke="#295D99" stroke-width="0.5" fill="#487CB9" fill-rule="evenodd" points="17.7075195 127 0 145.024902 25.9609375 168.775879 28.3989258 135.831543"></polygon>
                        <path d="M17.815918,126.919678 L54.609375,119.365234 C54.609375,119.365234 66.6430664,123.501953 76.3520508,119.365234 C85.9633789,122.352539 112.828125,126.919678 112.828125,126.919678 L111.572266,172.652344 L21.9746094,172.652344 L17.815918,126.919678 Z" id="Path-6" stroke="#295D99" stroke-width="0.5" fill="#487CB9" fill-rule="evenodd"></path>
                        <text id="YALL" stroke="none" fill="none" font-family="SuperstarM54, Superstar M54" font-size="26" font-weight="700" letter-spacing="5.9">
                            <tspan x="36" y="156" fill="#FFFFFF">Y</tspan>
                            <tspan x="53.3511719" y="156" letter-spacing="2" fill="#FFFFFF">AL</tspan>
                            <tspan x="85.8140625" y="156" fill="#FFFFFF">L</tspan>
                        </text>
                        <polygon id="Path-7" stroke="#FFFFFF" stroke-width="3" fill="none" points="54.1761122 136.678296 54.1756511 136.043213 54.5654297 136.043716 54.5654297 136.660562 54.0654297 137.056377"></polygon>
                    </g>
                </g>
            </g>
        </g>
    </g>
</svg>