<?xml version="1.0" encoding="UTF-8" standalone="no"?>
<svg width="62px" height="104px" viewBox="0 0 62 104" version="1.1" xmlns="http://www.w3.org/2000/svg" xmlns:xlink="http://www.w3.org/1999/xlink">
    <!-- Generator: Sketch 39.1 (31720) - http://www.bohemiancoding.com/sketch -->
    <title>chemex</title>
    <desc>Created with Sketch.</desc>
    <defs></defs>
    <g id="Page-1" stroke="none" stroke-width="1" fill="none" fill-rule="evenodd">
        <g id="Desktop" transform="translate(-797.000000, -747.000000)">
            <g id="Group-5" transform="translate(728.000000, 700.000000)">
                <g id="Chemex-2" transform="translate(69.000000, 49.000000)">
                    <g id="chemex">
                        <polyline id="filtro" stroke="#000000" stroke-width="3.056" stroke-linecap="round" stroke-linejoin="round" fill="#000000" points="7.32443194 5.12605887 4.82911111 0.4706875 57.294359 0.4706875 54.7441069 5.12605887"></polyline>
                        <path d="M50.4250769,61.2175313 C50.4250769,61.2175313 41.6836068,44.9814687 48.4834701,29.9635625 C48.4834701,29.9635625 63.5462906,8.04578125 47.6737607,8.04578125 L14.3092821,8.04578125 C-1.56377778,8.04578125 13.4995726,29.9635625 13.4995726,29.9635625 C20.2994359,44.9814687 11.5574359,61.2175313 11.5574359,61.2175313 C11.5574359,61.2175313 9.94066667,65.813375 4.27005128,76.9505 C-8.5342735,102.09775 12.3671453,101.806625 12.3671453,101.806625 L49.6153675,101.806625 C49.6153675,101.806625 70.5167863,102.09775 57.7129915,76.9505 C52.0423761,65.813375 50.4250769,61.2175313 50.4250769,61.2175313 Z" id="shape" fill="#FFFFFF"></path>
                        <path d="M45.3730681,98.2373419 L15.1218195,98.2373419 C15.1218195,98.2373419 -2.11674682,98.5056804 9.4151079,75.8310775 L52.6669105,75.8310775 C66.6854607,99.8974377 45.3730681,98.2373419 45.3730681,98.2373419 Z" id="liquido" stroke="#000000" stroke-width="4" fill="#000000"></path>
                        <path d="M24.465094,66.0545625 C24.465094,66.633625 23.6633333,67.1027188 22.6739829,67.1027188 C21.6846325,67.1027188 20.8823419,66.633625 20.8823419,66.0545625 C20.8823419,65.4755 21.6846325,65.005875 22.6739829,65.005875 C23.6633333,65.005875 24.465094,65.4755 24.465094,66.0545625 L24.465094,66.0545625 Z" id="oval" fill="#000000"></path>
                        <path d="M24.465094,66.0545625 C24.465094,66.633625 23.6633333,67.1027188 22.6739829,67.1027188 C21.6846325,67.1027188 20.8823419,66.633625 20.8823419,66.0545625 C20.8823419,65.4755 21.6846325,65.005875 22.6739829,65.005875 C23.6633333,65.005875 24.465094,65.4755 24.465094,66.0545625 L24.465094,66.0545625 Z" id="oval" stroke="#000000" stroke-width="2.335" stroke-linecap="round"></path>
                        <path d="M40.9173504,66.0545625 C40.9173504,66.633625 40.1150598,67.1027188 39.1257094,67.1027188 C38.136359,67.1027188 37.3345983,66.633625 37.3345983,66.0545625 C37.3345983,65.4755 38.136359,65.005875 39.1257094,65.005875 C40.1150598,65.005875 40.9173504,65.4755 40.9173504,66.0545625 L40.9173504,66.0545625 Z" id="oval" fill="#000000"></path>
                        <path d="M40.9173504,66.0545625 C40.9173504,66.633625 40.1150598,67.1027188 39.1257094,67.1027188 C38.136359,67.1027188 37.3345983,66.633625 37.3345983,66.0545625 C37.3345983,65.4755 38.136359,65.005875 39.1257094,65.005875 C40.1150598,65.005875 40.9173504,65.4755 40.9173504,66.0545625 L40.9173504,66.0545625 Z" id="oval" stroke="#000000" stroke-width="2.335" stroke-linecap="round"></path>
                        <path d="M47.1141709,45.1084375 C47.1353675,45.951 47.2524786,46.718125 47.4199316,47.3997187 C47.9763419,49.6660312 49.0896923,50.985125 49.0896923,50.985125 C52.1939316,55.7206875 51.1817949,57.885 49.3938632,58.8662187 C47.6054017,59.8469062 45.0411453,59.6439687 45.0411453,59.6439687 L16.9418974,59.6439687 C16.9418974,59.6439687 14.377641,59.8469062 12.5891795,58.8662187 C10.8012479,57.885 9.78911111,55.7206875 12.8928205,50.985125 C12.8928205,50.985125 14.0061709,49.6660312 14.5631111,47.3997187 C14.7305641,46.718125 14.8476752,45.951 14.8688718,45.1084375 L14.8688718,45.0404375 C14.8476752,44.197875 14.7305641,43.43075 14.5631111,42.7491562 C14.0061709,40.4828437 12.8928205,39.1642812 12.8928205,39.1642812 C9.78911111,34.4287187 10.8012479,32.263875 12.5891795,31.2826562 C14.377641,30.3019687 16.9418974,30.5049062 16.9418974,30.5049062 L45.0411453,30.5049062 C45.0411453,30.5049062 47.6054017,30.3019687 49.3938632,31.2826562 C51.1817949,32.263875 52.1939316,34.4287187 49.0896923,39.1642812 C49.0896923,39.1642812 47.9763419,40.4828437 47.4199316,42.7491562 C47.2524786,43.43075 47.1353675,44.197875 47.1141709,45.0404375 L47.1141709,45.1084375 L47.1141709,45.1084375 Z" id="agarre" fill="#000000"></path>
                        <path d="M34.9049402,45.0744375 C34.9049402,47.2414062 33.1530427,48.99825 30.9915214,48.99825 C28.83,48.99825 27.0775726,47.2414062 27.0775726,45.0744375 C27.0775726,42.9074687 28.83,41.150625 30.9915214,41.150625 C33.1530427,41.150625 34.9049402,42.9074687 34.9049402,45.0744375 L34.9049402,45.0744375 Z" id="centro" fill="#C7B299"></path>
                        <path d="M27.0775726,45.0744375 C27.0775726,45.0744375 20.6189744,53.7083125 23.0481026,67.9144688 M35.0464274,45.0744375 C35.0464274,45.0744375 41.5050256,53.7083125 39.0758974,67.9144688" id="cables" stroke="#000000" stroke-width="3.056" stroke-linecap="round"></path>
                        <path d="M34.9049402,45.0744375 C34.9049402,47.2414062 33.1530427,48.99825 30.9915214,48.99825 C28.83,48.99825 27.0775726,47.2414062 27.0775726,45.0744375 C27.0775726,42.9074687 28.83,41.150625 30.9915214,41.150625 C33.1530427,41.150625 34.9049402,42.9074687 34.9049402,45.0744375 L34.9049402,45.0744375 Z" id="centro" stroke="#FFFFFF" stroke-width="3.056" fill="#FFFFFF"></path>
                    </g>
                </g>
            </g>
        </g>
    </g>
</svg>