<?xml version="1.0" encoding="UTF-8" standalone="no"?>
<svg width="158px" height="118px" viewBox="0 0 158 118" version="1.1" xmlns="http://www.w3.org/2000/svg" xmlns:xlink="http://www.w3.org/1999/xlink">
    <!-- Generator: Sketch 39.1 (31720) - http://www.bohemiancoding.com/sketch -->
    <title>kettle</title>
    <desc>Created with Sketch.</desc>
    <defs></defs>
    <g id="Page-1" stroke="none" stroke-width="1" fill="none" fill-rule="evenodd">
        <g id="Artboard-3" transform="translate(-420.000000, -737.000000)">
            <g id="kettle" transform="translate(421.000000, 737.000000)">
                <g id="Kettle" transform="translate(56.000000, 32.000000)">
                    <path d="M100.280271,79.8947834 C99.2818973,70.4525618 95.5351788,61.8225797 89.8582704,54.7811459 C94.3530015,49.0357529 97.0347878,41.8318712 97.0347878,34.0045134 C97.0347878,15.2359598 81.6562438,0.0210175677 62.6861133,0.0210175677 C43.7159828,0.0210175677 28.3374388,15.2359598 28.3374388,34.0045134 C28.3374388,36.6537808 28.6538466,39.22815 29.2334155,41.7033299 C26.5285899,43.0616171 23.9707044,44.662311 21.5833105,46.4725172 L14.4016734,38.3728947 L-2.84217094e-14,43.1263939 L11.9707606,56.1424695 C6.88826881,62.9237842 3.54192386,71.0522527 2.60652419,79.8947834 C2.31878768,82.6179367 4.44609234,85 7.21594029,85 L95.6708552,85 C98.4412152,85 100.568008,82.6179367 100.280271,79.8947834 L100.280271,79.8947834 Z M36.2640166,34.0045134 C36.2640166,19.566892 48.0934689,7.86355741 62.6861133,7.86355741 C77.2787577,7.86355741 89.10821,19.566892 89.10821,34.0045134 C89.10821,39.5722765 87.3433919,44.7296181 84.3441739,48.9699641 C75.6373284,41.1967556 64.1002205,36.462487 51.4433978,36.462487 C46.3040755,36.462487 41.3541882,37.2544838 36.6976694,38.7023451 C36.4181246,37.1775614 36.2640166,35.6092559 36.2640166,34.0045134 L36.2640166,34.0045134 Z" id="tetera" stroke="#000000" fill="#FFFFFF"></path>
                    <path d="M76.6328948,27.8696517 C76.6328948,25.5165248 74.3094992,23.6089703 71.4433978,23.6089703 C68.5772963,23.6089703 66.2539008,25.5165248 66.2539008,27.8696517 C66.2539008,30.2227786 68.5772963,32.130333 71.4433978,32.130333 C74.3094992,32.130333 76.6328948,30.2227786 76.6328948,27.8696517" id="bolita" fill="#000000"></path>
                </g>
                <g id="Spoon">
                    <path d="M42.4238385,15.132842 C42.0705706,15.1384451 41.9549556,15.132842 41.8377349,15.132842 L3.92488734,15.132842 C1.96063719,15.132842 0.368121274,16.4403296 0.368121274,18.053348 C0.368121274,19.6660369 1.96063719,20.9735245 3.92488734,20.9735245 L41.8377349,20.9735245 C45.3105998,26.7782815 53.5288972,30.8849856 63.1409973,30.8849856 C74.7189533,30.8849856 84.282479,24.9292759 85.7561685,17.2125613 C85.9633119,16.1275477 85.0536469,15.132842 83.8585575,15.132842 L42.4238385,15.132842 Z" id="spoon" stroke="#000000" fill="#FFFFFF"></path>
                    <path d="M51.3053162,13.475988 C51.1937157,13.475988 51.0833194,13.4730217 50.9737261,13.4667594 C47.6778966,13.2821885 45.8938934,10.1771115 47.6530072,7.88151002 C50.1315032,4.64789254 53.788228,0.0474611067 57.7853747,0.0474611067 L69.7519255,0.0474611067 C74.2275897,0.0474611067 77.405797,4.64789254 79.8838915,7.88151002 C81.6434068,10.1771115 79.8594036,13.2821885 76.5635741,13.4667594 C76.4539807,13.4730217 76.3435845,13.475988 76.2319839,13.475988 L51.3053162,13.475988 Z" id="borrasca" fill="#000000"></path>
                </g>
            </g>
        </g>
    </g>
</svg>