<?xml version="1.0" encoding="UTF-8" standalone="no"?>
<svg width="65px" height="57px" viewBox="0 0 65 57" version="1.1" xmlns="http://www.w3.org/2000/svg" xmlns:xlink="http://www.w3.org/1999/xlink">
    <!-- Generator: Sketch 39.1 (31720) - http://www.bohemiancoding.com/sketch -->
    <title>mug</title>
    <desc>Created with Sketch.</desc>
    <defs></defs>
    <g id="Page-1" stroke="none" stroke-width="1" fill="none" fill-rule="evenodd">
        <g id="Desktop" transform="translate(-174.000000, -769.000000)">
            <g id="Group-3" transform="translate(98.000000, 700.000000)">
                <g id="mug" transform="translate(77.000000, 74.000000)">
                    <path d="M63.4079485,27.7260155 C63.4079485,31.9923219 59.95873,35.452031 55.7035745,35.452031 C51.4492185,35.452031 48,31.9923219 48,27.7260155 C48,23.4589073 51.4492185,20 55.7035745,20 C59.95873,20 63.4079485,23.4589073 63.4079485,27.7260155 Z M55.7033756,32.0918347 C53.3002801,32.0918347 51.3509829,30.137062 51.3509829,27.7260155 C51.3509829,25.314969 53.3002801,23.3601963 55.7033756,23.3601963 C58.1076684,23.3601963 60.0569656,25.314969 60.0569656,27.7260155 C60.0569656,30.137062 58.1076684,32.0918347 55.7033756,32.0918347 Z" id="Stroke-1" fill="#000000"></path>
                    <path d="M51.3215607,21 C51.3215607,37.3865677 39.8326374,50.669458 25.660439,50.669458 C11.4889234,50.669458 0,37.3865677 0,21 L51.3215607,21 L51.3215607,21 Z" id="Fill-3" fill="#FFFFFF"></path>
                    <path d="M51.3215607,21 C51.3215607,37.3865677 39.8326374,50.669458 25.660439,50.669458 C11.4889234,50.669458 0,37.3865677 0,21 L51.3215607,21 L51.3215607,21 Z" id="Stroke-4" stroke="#000000" stroke-linejoin="round"></path>
                    <path d="M25.7960371,0 C25.7960371,0 19.5049536,11.2534549 25.7960371,11.2534549 C25.7960371,11.2534549 32.3189786,11.9819844 25.7960371,0 L25.7960371,0 Z" id="Shape-2" stroke="#000000" stroke-width="4" fill="#000000"></path>
                </g>
            </g>
        </g>
    </g>
</svg>