<?xml version="1.0" encoding="UTF-8" standalone="no"?>
<svg width="193px" height="76px" viewBox="0 0 193 76" version="1.1" xmlns="http://www.w3.org/2000/svg" xmlns:xlink="http://www.w3.org/1999/xlink">
    <!-- Generator: Sketch 39.1 (31720) - http://www.bohemiancoding.com/sketch -->
    <title>cloud</title>
    <desc>Created with Sketch.</desc>
    <defs></defs>
    <g id="Page-1" stroke="none" stroke-width="1" fill="none" fill-rule="evenodd">
        <g id="Desktop" transform="translate(-702.000000, -51.000000)" fill="#FFFFFF">
            <g id="cloud" transform="translate(702.000000, 51.000000)">
                <path d="M83.0427304,76 C82.5821935,53.503996 64.1707645,35.4090909 41.5257815,35.4090909 C18.8807986,35.4090909 0.469369622,53.503996 0.00883269327,76 L83.0427304,76 Z" id="Combined-Shape"></path>
                <path d="M192.991167,76 C192.53063,53.503996 174.119201,35.4090909 151.474218,35.4090909 C128.829235,35.4090909 110.417807,53.503996 109.95727,76 L192.991167,76 Z" id="Combined-Shape"></path>
                <path d="M165.325547,76 C168.055516,69.489082 169.563608,62.3408103 169.563608,54.8409091 C169.563608,24.5531113 144.968304,0 114.628459,0 C84.2886147,0 59.693311,24.5531113 59.693311,54.8409091 C59.693311,62.3408107 61.2014033,69.4890827 63.9313729,76.0000011 L165.325547,76 Z" id="Combined-Shape"></path>
                <path d="M86.9324041,76 C91.5444217,70.1849365 94.2981289,62.8339525 94.2981289,54.8409091 C94.2981289,36.000468 78.998688,20.7272727 60.1258712,20.7272727 C41.2530544,20.7272727 25.9536135,36.000468 25.9536135,54.8409091 C25.9536135,62.8339525 28.7073207,70.1849365 33.3193383,76 L86.9324041,76 Z" id="Combined-Shape"></path>
            </g>
        </g>
    </g>
</svg>