<?xml version="1.0" encoding="UTF-8" standalone="no"?>
<svg width="371px" height="659px" viewBox="0 0 371 659" version="1.1" xmlns="http://www.w3.org/2000/svg" xmlns:xlink="http://www.w3.org/1999/xlink">
    <!-- Generator: Sketch 39.1 (31720) - http://www.bohemiancoding.com/sketch -->
    <title>phone</title>
    <desc>Created with Sketch.</desc>
    <defs>
        <rect id="path-1" x="0" y="0" width="370.187408" height="658.440002" rx="32"></rect>
        <mask id="mask-2" maskContentUnits="userSpaceOnUse" maskUnits="objectBoundingBox" x="0" y="0" width="370.187408" height="658.440002" fill="white">
            <use xlink:href="#path-1"></use>
        </mask>
        <rect id="path-3" x="12" y="60" width="347" height="560" rx="3"></rect>
        <mask id="mask-4" maskContentUnits="userSpaceOnUse" maskUnits="objectBoundingBox" x="0" y="0" width="347" height="560" fill="white">
            <use xlink:href="#path-3"></use>
        </mask>
    </defs>
    <g id="Page-1" stroke="none" stroke-width="1" fill="none" fill-rule="evenodd">
        <g id="Desktop" transform="translate(-327.000000, -239.000000)">
            <g id="phone" transform="translate(327.000000, 239.000000)">
                <use id="inIphone" stroke="#979797" mask="url(#mask-2)" stroke-width="2" fill="#FFFFFF" xlink:href="#path-1"></use>
                <circle id="Oval" fill="#4A4A4A" cx="122" cy="23" r="4"></circle>
                <use id="Rectangle-2" stroke="#000000" mask="url(#mask-4)" stroke-width="2" fill="#FFFFFF" xlink:href="#path-3"></use>
                <rect id="Rectangle-3" fill="#4A4A4A" x="142" y="21" width="86" height="5" rx="2.5"></rect>
                <circle id="Background" fill="#50E3C2" cx="184.613281" cy="229.613281" r="99.6132812"></circle>
                <text id="12oz" font-family="AvenirNext-Medium, Avenir Next" font-size="22" font-weight="400">
                    <tspan x="164.123395" y="302" fill="#000000">12</tspan>
                    <tspan x="190.303395" y="302" font-size="19" fill="#FFFFFF">oz</tspan>
                </text>
                <g id="Home" transform="translate(307.000000, 73.000000)">
                    <ellipse id="Oval-121" fill="#50E3C2" cx="29.4557706" cy="29.4557706" rx="29.4557706" ry="29.4557706"></ellipse>
                    <g id="Imported-Layers-Copy" stroke-width="1" transform="translate(11.045914, 15.852816)">
                        <path d="M40.2241206,17.7607294 C40.2241206,20.4570055 38.0381151,22.6435177 35.3413323,22.6435177 C32.6450562,22.6435177 30.4590507,20.4570055 30.4590507,17.7607294 C30.4590507,15.0639466 32.6450562,12.8779411 35.3413323,12.8779411 C38.0381151,12.8779411 40.2241206,15.0639466 40.2241206,17.7607294 Z M35.3412062,20.5198969 C33.8182004,20.5198969 32.5827976,19.2844941 32.5827976,17.7607294 C32.5827976,16.2369647 33.8182004,15.0015619 35.3412062,15.0015619 C36.8649709,15.0015619 38.1003738,16.2369647 38.1003738,17.7607294 C38.1003738,19.2844941 36.8649709,20.5198969 35.3412062,20.5198969 Z" id="Stroke-1" fill="#000000"></path>
                        <path d="M32.6666978,13.466647 C32.6666978,23.8228443 25.3853819,32.217539 16.4034913,32.217539 C7.42203344,32.217539 0.140717593,23.8228443 0.140717593,13.466647 L32.6666978,13.466647 L32.6666978,13.466647 Z" id="Fill-3" fill="#FFFFFF"></path>
                        <path d="M32.6666978,13.466647 C32.6666978,23.8228443 25.3853819,32.217539 16.4034913,32.217539 C7.42203344,32.217539 0.140717593,23.8228443 0.140717593,13.466647 L32.6666978,13.466647 L32.6666978,13.466647 Z" id="Stroke-4"></path>
                        <path d="M16.7104514,0.134958553 C16.7104514,0.134958553 12.7233619,7.24706413 16.7104514,7.24706413 C16.7104514,7.24706413 20.8444853,7.70748969 16.7104514,0.134958553 L16.7104514,0.134958553 Z" id="Shape-2" stroke="#000000" stroke-width="4" fill="#000000"></path>
                    </g>
                </g>
                <path d="M167.5,308 L208.5,308" id="Line" stroke="#FFFFFF" stroke-width="2" stroke-linecap="square"></path>
                <g id="chemexFull" transform="translate(153.000000, 153.000000)">
                    <polyline id="Stroke-5" stroke="#000000" stroke-width="3.056" stroke-linecap="round" stroke-linejoin="round" fill="#000000" points="7.67457376 4.93371992 5.05996502 0.0680624523 60.0332951 0.0680624523 57.3611291 4.93371992"></polyline>
                    <path d="M52.8356295,63.55888 C52.8356295,63.55888 43.6762766,46.5894242 50.8012048,30.8931495 C50.8012048,30.8931495 66.584098,7.98532803 49.9527876,7.98532803 L14.9933321,7.98532803 C-1.63853361,7.98532803 14.1449148,30.8931495 14.1449148,30.8931495 C21.2698431,46.5894242 12.1099349,63.55888 12.1099349,63.55888 C12.1099349,63.55888 10.4158766,68.3623209 4.47417954,80.002517 C-8.94225136,106.285684 12.9583522,105.981409 12.9583522,105.981409 L51.9872122,105.981409 C51.9872122,105.981409 73.8878158,106.285684 60.4719401,80.002517 C54.530243,68.3623209 52.8356295,63.55888 52.8356295,63.55888 Z" id="Stroke-10" stroke="#FFFFFF" stroke-width="3.056" fill="#FFFFFF"></path>
                    <path d="M47.5421112,102.250899 L15.8447126,102.250899 C15.8447126,102.250899 -2.21793714,102.531359 9.86519373,78.8325295 L55.1846331,78.8325295 C69.8733351,103.985983 47.5421112,102.250899 47.5421112,102.250899 Z" id="Shape" stroke="#000000" stroke-width="4" fill="#000000"></path>
                    <path d="M25.634639,68.614403 C25.634639,69.2196222 24.7945504,69.7099052 23.7579045,69.7099052 C22.7212585,69.7099052 21.8806147,69.2196222 21.8806147,68.614403 C21.8806147,68.0091839 22.7212585,67.5183457 23.7579045,67.5183457 C24.7945504,67.5183457 25.634639,68.0091839 25.634639,68.614403 L25.634639,68.614403 Z" id="Fill-6" fill="#000000"></path>
                    <path d="M25.634639,68.614403 C25.634639,69.2196222 24.7945504,69.7099052 23.7579045,69.7099052 C22.7212585,69.7099052 21.8806147,69.2196222 21.8806147,68.614403 C21.8806147,68.0091839 22.7212585,67.5183457 23.7579045,67.5183457 C24.7945504,67.5183457 25.634639,68.0091839 25.634639,68.614403 L25.634639,68.614403 Z" id="Stroke-7" stroke="#000000" stroke-width="2.335" stroke-linecap="round"></path>
                    <path d="M42.8733896,68.614403 C42.8733896,69.2196222 42.0327458,69.7099052 40.9960998,69.7099052 C39.9594538,69.7099052 39.1193653,69.2196222 39.1193653,68.614403 C39.1193653,68.0091839 39.9594538,67.5183457 40.9960998,67.5183457 C42.0327458,67.5183457 42.8733896,68.0091839 42.8733896,68.614403 L42.8733896,68.614403 Z" id="Fill-8" fill="#000000"></path>
                    <path d="M42.8733896,68.614403 C42.8733896,69.2196222 42.0327458,69.7099052 40.9960998,69.7099052 C39.9594538,69.7099052 39.1193653,69.2196222 39.1193653,68.614403 C39.1193653,68.0091839 39.9594538,67.5183457 40.9960998,67.5183457 C42.0327458,67.5183457 42.8733896,68.0091839 42.8733896,68.614403 L42.8733896,68.614403 Z" id="Stroke-9" stroke="#000000" stroke-width="2.335" stroke-linecap="round"></path>
                    <path d="M49.3664468,46.7221282 C49.3886567,47.6027498 49.5113663,48.4045263 49.6868243,49.1169081 C50.2698336,51.4855914 51.4364073,52.8642694 51.4364073,52.8642694 C54.6890436,57.8137403 53.6285221,60.0758162 51.755119,61.1013572 C49.8811607,62.126343 47.194321,61.9142387 47.194321,61.9142387 L17.7517987,61.9142387 C17.7517987,61.9142387 15.064959,62.126343 13.1910007,61.1013572 C11.3175976,60.0758162 10.257076,57.8137403 13.5091571,52.8642694 C13.5091571,52.8642694 14.6757309,51.4855914 15.2592954,49.1169081 C15.4347534,48.4045263 15.557463,47.6027498 15.5796728,46.7221282 L15.5796728,46.6510566 C15.557463,45.770435 15.4347534,44.9686585 15.2592954,44.2562767 C14.6757309,41.8875934 13.5091571,40.5094706 13.5091571,40.5094706 C10.257076,35.5599997 11.3175976,33.2973686 13.1910007,32.2718275 C15.064959,31.2468418 17.7517987,31.4589461 17.7517987,31.4589461 L47.194321,31.4589461 C47.194321,31.4589461 49.8811607,31.2468418 51.755119,32.2718275 C53.6285221,33.2973686 54.6890436,35.5599997 51.4364073,40.5094706 C51.4364073,40.5094706 50.2698336,41.8875934 49.6868243,44.2562767 C49.5113663,44.9686585 49.3886567,45.770435 49.3664468,46.6510566 L49.3664468,46.7221282 L49.3664468,46.7221282 Z" id="Fill-11" fill="#000000"></path>
                    <path d="M49.3664468,46.7221282 C49.3886567,47.6027498 49.5113663,48.4045263 49.6868243,49.1169081 C50.2698336,51.4855914 51.4364073,52.8642694 51.4364073,52.8642694 C54.6890436,57.8137403 53.6285221,60.0758162 51.755119,61.1013572 C49.8811607,62.126343 47.194321,61.9142387 47.194321,61.9142387 L17.7517987,61.9142387 C17.7517987,61.9142387 15.064959,62.126343 13.1910007,61.1013572 C11.3175976,60.0758162 10.257076,57.8137403 13.5091571,52.8642694 C13.5091571,52.8642694 14.6757309,51.4855914 15.2592954,49.1169081 C15.4347534,48.4045263 15.557463,47.6027498 15.5796728,46.7221282 L15.5796728,46.6510566 C15.557463,45.770435 15.4347534,44.9686585 15.2592954,44.2562767 C14.6757309,41.8875934 13.5091571,40.5094706 13.5091571,40.5094706 C10.257076,35.5599997 11.3175976,33.2973686 13.1910007,32.2718275 C15.064959,31.2468418 17.7517987,31.4589461 17.7517987,31.4589461 L47.194321,31.4589461 C47.194321,31.4589461 49.8811607,31.2468418 51.755119,32.2718275 C53.6285221,33.2973686 54.6890436,35.5599997 51.4364073,40.5094706 C51.4364073,40.5094706 50.2698336,41.8875934 49.6868243,44.2562767 C49.5113663,44.9686585 49.3886567,45.770435 49.3664468,46.6510566 L49.3664468,46.7221282 L49.3664468,46.7221282 Z" id="Stroke-12" stroke="#000000" stroke-width="3.056"></path>
                    <path d="M36.5735582,46.6865924 C36.5735582,48.9514445 34.737912,50.787646 32.4730598,50.787646 C30.2082077,50.787646 28.3720062,48.9514445 28.3720062,46.6865924 C28.3720062,44.4217403 30.2082077,42.5855388 32.4730598,42.5855388 C34.737912,42.5855388 36.5735582,44.4217403 36.5735582,46.6865924 L36.5735582,46.6865924 Z" id="Fill-14" fill="#C7B299"></path>
                    <path d="M28.3720062,46.6865924 C28.3720062,46.6865924 21.604657,55.710465 24.1499088,70.5583224 M36.7218091,46.6865924 C36.7218091,46.6865924 43.4891584,55.710465 40.9439066,70.5583224" id="Stroke-16" stroke="#000000" stroke-width="3.056" stroke-linecap="round"></path>
                    <path d="M36.5735582,46.6865924 C36.5735582,48.9514445 34.737912,50.787646 32.4730598,50.787646 C30.2082077,50.787646 28.3720062,48.9514445 28.3720062,46.6865924 C28.3720062,44.4217403 30.2082077,42.5855388 32.4730598,42.5855388 C34.737912,42.5855388 36.5735582,44.4217403 36.5735582,46.6865924 L36.5735582,46.6865924 Z" id="Stroke-15" stroke="#FFFFFF" stroke-width="3.056" fill="#FFFFFF"></path>
                </g>
            </g>
        </g>
    </g>
</svg>